<svg width="200" height="32" viewBox="0 0 200 32" fill="none" xmlns="http://www.w3.org/2000/svg">
<g id="Social">
<g id="Facebook">
<path id="bg-white" fill-rule="evenodd" clip-rule="evenodd" d="M0 16C0 7.16344 7.16344 0 16 0C24.8366 0 32 7.16344 32 16C32 24.8366 24.8366 32 16 32C7.16344 32 0 24.8366 0 16Z" fill="#333333"/>
<path id="Combined Shape" fill-rule="evenodd" clip-rule="evenodd" d="M16 0C7.16344 0 0 7.16344 0 16C0 24.8366 7.16344 32 16 32C24.8366 32 32 24.8366 32 16C32 7.16344 24.8366 0 16 0ZM17.6676 16.7028V25.4077H14.066V16.7031H12.2666V13.7034H14.066V11.9024C14.066 9.4552 15.082 8 17.9687 8H20.372V11.0001H18.8698C17.7461 11.0001 17.6717 11.4193 17.6717 12.2017L17.6676 13.7031H20.389L20.0706 16.7028H17.6676Z" fill="white"/>
</g>
<g id="Instagram">
<path id="bg-white_2" fill-rule="evenodd" clip-rule="evenodd" d="M56 16C56 7.16344 63.1634 0 72 0C80.8366 0 88 7.16344 88 16C88 24.8366 80.8366 32 72 32C63.1634 32 56 24.8366 56 16Z" fill="#333333"/>
<path id="Combined Shape_2" fill-rule="evenodd" clip-rule="evenodd" d="M72 0C63.1634 0 56 7.16344 56 16C56 24.8366 63.1634 32 72 32C80.8366 32 88 24.8366 88 16C88 7.16344 80.8366 0 72 0ZM68.8156 7.51835C69.7258 7.47693 70.0167 7.4668 72.3342 7.4668H72.3315C74.6498 7.4668 74.9396 7.47693 75.8498 7.51835C76.7582 7.55995 77.3787 7.70378 77.9227 7.9148C78.4845 8.13258 78.9592 8.42414 79.4338 8.89881C79.9085 9.37313 80.2001 9.84922 80.4187 10.4105C80.6285 10.9531 80.7725 11.5732 80.8152 12.4816C80.8561 13.3918 80.8667 13.6827 80.8667 16.0002C80.8667 18.3178 80.8561 18.6079 80.8152 19.5181C80.7725 20.4262 80.6285 21.0465 80.4187 21.5893C80.2001 22.1503 79.9085 22.6264 79.4338 23.1007C78.9597 23.5754 78.4843 23.8677 77.9232 24.0856C77.3803 24.2967 76.7595 24.4405 75.851 24.4821C74.9408 24.5235 74.6509 24.5336 72.3331 24.5336C70.0158 24.5336 69.7251 24.5235 68.8149 24.4821C67.9066 24.4405 67.2863 24.2967 66.7434 24.0856C66.1825 23.8677 65.7064 23.5754 65.2323 23.1007C64.7578 22.6264 64.4662 22.1503 64.2481 21.5891C64.0372 21.0465 63.8934 20.4264 63.8516 19.5179C63.8104 18.6077 63.8001 18.3178 63.8001 16.0002C63.8001 13.6827 63.8107 13.3917 63.8514 12.4814C63.8923 11.5733 64.0363 10.9531 64.2479 10.4103C64.4666 9.84922 64.7581 9.37313 65.2328 8.89881C65.7071 8.42432 66.1832 8.13276 66.7445 7.9148C67.287 7.70378 67.9071 7.55995 68.8156 7.51835Z" fill="white"/>
<path id="Combined Shape_3" fill-rule="evenodd" clip-rule="evenodd" d="M71.5687 9.00409C71.7174 9.00385 71.8773 9.00393 72.0498 9.004L72.3343 9.00409C74.6127 9.00409 74.8827 9.01226 75.7825 9.05315C76.6145 9.0912 77.066 9.23022 77.3668 9.34702C77.7651 9.50169 78.049 9.68658 78.3475 9.98525C78.6461 10.2839 78.831 10.5684 78.9861 10.9666C79.1029 11.267 79.2421 11.7186 79.2799 12.5506C79.3208 13.4502 79.3297 13.7204 79.3297 15.9978C79.3297 18.2751 79.3208 18.5453 79.2799 19.4449C79.2419 20.2769 79.1029 20.7285 78.9861 21.0289C78.8314 21.4271 78.6461 21.7107 78.3475 22.0092C78.0488 22.3079 77.7652 22.4928 77.3668 22.6474C77.0664 22.7648 76.6145 22.9034 75.7825 22.9415C74.8829 22.9824 74.6127 22.9913 72.3343 22.9913C70.0556 22.9913 69.7856 22.9824 68.886 22.9415C68.054 22.9031 67.6025 22.7641 67.3015 22.6472C66.9033 22.4926 66.6188 22.3077 66.3201 22.009C66.0215 21.7104 65.8366 21.4266 65.6816 21.0282C65.5648 20.7278 65.4256 20.2762 65.3877 19.4442C65.3468 18.5446 65.3386 18.2744 65.3386 15.9956C65.3386 13.7168 65.3468 13.448 65.3877 12.5485C65.4257 11.7165 65.5648 11.2649 65.6816 10.9641C65.8362 10.5659 66.0215 10.2814 66.3201 9.98276C66.6188 9.68409 66.9033 9.4992 67.3015 9.34418C67.6023 9.22684 68.054 9.08818 68.886 9.04995C69.6732 9.0144 69.9783 9.00373 71.5687 9.00195V9.00409ZM76.8892 10.4206C76.3238 10.4206 75.8651 10.8787 75.8651 11.4443C75.8651 12.0096 76.3238 12.4683 76.8892 12.4683C77.4545 12.4683 77.9132 12.0096 77.9132 11.4443C77.9132 10.8789 77.4545 10.4202 76.8892 10.4202V10.4206ZM67.9521 15.9988C67.9521 13.5787 69.9141 11.6166 72.3341 11.6165C74.7543 11.6165 76.7159 13.5787 76.7159 15.9988C76.7159 18.4189 74.7544 20.3802 72.3343 20.3802C69.9142 20.3802 67.9521 18.4189 67.9521 15.9988Z" fill="white"/>
<path id="Shape" fill-rule="evenodd" clip-rule="evenodd" d="M72.334 13.1553C73.9048 13.1553 75.1785 14.4287 75.1785 15.9997C75.1785 17.5706 73.9048 18.8442 72.334 18.8442C70.7629 18.8442 69.4895 17.5706 69.4895 15.9997C69.4895 14.4287 70.7629 13.1553 72.334 13.1553V13.1553Z" fill="white"/>
</g>
<g id="Twitter">
<path id="bg-white_3" fill-rule="evenodd" clip-rule="evenodd" d="M112 16C112 7.16344 119.163 0 128 0C136.837 0 144 7.16344 144 16C144 24.8366 136.837 32 128 32C119.163 32 112 24.8366 112 16Z" fill="#333333"/>
<path id="Combined Shape_4" fill-rule="evenodd" clip-rule="evenodd" d="M128 0C119.163 0 112 7.16344 112 16C112 24.8366 119.163 32 128 32C136.837 32 144 24.8366 144 16C144 7.16344 136.837 0 128 0ZM128.221 13.5582L128.188 13.0046C128.087 11.5697 128.971 10.259 130.37 9.75059C130.885 9.56981 131.758 9.54721 132.328 9.70539C132.552 9.77318 132.978 9.99916 133.28 10.2025L133.828 10.5754L134.433 10.3833C134.768 10.2816 135.216 10.1121 135.417 9.99916C135.608 9.89747 135.776 9.84097 135.776 9.87487C135.776 10.0669 135.361 10.7223 135.014 11.0838C134.544 11.5923 134.679 11.6375 135.63 11.2985C136.201 11.1064 136.212 11.1064 136.1 11.3211C136.033 11.4341 135.686 11.8295 135.317 12.1911C134.69 12.8125 134.656 12.8803 134.656 13.4001C134.656 14.2023 134.276 15.8745 133.895 16.7897C133.19 18.5071 131.679 20.281 130.168 21.1736C128.042 22.4277 125.211 22.7441 122.827 22.0097C122.032 21.7611 120.667 21.1284 120.667 21.0154C120.667 20.9815 121.081 20.9363 121.584 20.925C122.636 20.9024 123.689 20.6086 124.584 20.0889L125.188 19.7273L124.494 19.4901C123.509 19.1511 122.625 18.3715 122.401 17.6371C122.334 17.3998 122.357 17.3885 122.983 17.3885L123.633 17.3772L123.084 17.1173C122.435 16.7897 121.842 16.236 121.551 15.6711C121.338 15.2643 121.07 14.2362 121.148 14.1571C121.17 14.1232 121.405 14.191 121.674 14.2814C122.446 14.5638 122.547 14.496 122.099 14.0215C121.26 13.1628 121.003 11.886 121.405 10.6771L121.596 10.1347L122.334 10.8692C123.845 12.3493 125.625 13.2306 127.662 13.4905L128.221 13.5582Z" fill="white"/>
</g>
<g id="Youtube">
<path id="bg-white_4" fill-rule="evenodd" clip-rule="evenodd" d="M168 16C168 7.16344 175.163 0 184 0C192.837 0 200 7.16344 200 16C200 24.8366 192.837 32 184 32C175.163 32 168 24.8366 168 16Z" fill="#333333"/>
<path id="Combined Shape_5" fill-rule="evenodd" clip-rule="evenodd" d="M184 0C175.163 0 168 7.16344 168 16C168 24.8366 175.163 32 184 32C192.837 32 200 24.8366 200 16C200 7.16344 192.837 0 184 0ZM190.668 10.5C191.402 10.7015 191.981 11.2953 192.177 12.0493C192.533 13.4158 192.533 16.2671 192.533 16.2671C192.533 16.2671 192.533 19.1183 192.177 20.485C191.981 21.239 191.402 21.8327 190.668 22.0343C189.337 22.4005 184 22.4005 184 22.4005C184 22.4005 178.663 22.4005 177.332 22.0343C176.598 21.8327 176.02 21.239 175.823 20.485C175.467 19.1183 175.467 16.2671 175.467 16.2671C175.467 16.2671 175.467 13.4158 175.823 12.0493C176.02 11.2953 176.598 10.7015 177.332 10.5C178.663 10.1338 184 10.1338 184 10.1338C184 10.1338 189.337 10.1338 190.668 10.5Z" fill="white"/>
<path id="Fill 2" fill-rule="evenodd" clip-rule="evenodd" d="M182.4 19.1995V13.8662L186.667 16.533L182.4 19.1995Z" fill="white"/>
</g>
</g>
</svg>
